# xmcd CD database file
#
# Track frame offsets:
#	150
#	14570
#	24864
#	39756
#	52712
#	67151
#	80137
#	94251
#	105722
#	121465
#	137127
#	150505
#	170167
#	183224
#	194957
#	215144
#	227257
#	240193
#
# Disc length: 3384 seconds
#
# Revision: 1
# Processed by: cddbd v1.5.2PL0 Copyright (c) Steve Scherf et al.
# Submitted via: CDex 1.70beta2
#
DISCID=f10d3612
DTITLE=BONDE DO FORRO - Unknown CD for MusicBrainz and FreeDB
DYEAR=2005
DGENRE=Other
TTITLE0=SERA
TTITLE1=SEMPRE SEU HOMEM
TTITLE2=PORQUE BRIGAMOS
TTITLE3=INEVITAVEL
TTITLE4=PARABENS PRO NOSSO AMOR
TTITLE5=NAO PARO
TTITLE6=BEBO PORQUE GOSTO DE BEBER
TTITLE7=CHICO BOLA
TTITLE8=CHEFE DO PUTEIRO
TTITLE9=MILK SHAKE
TTITLE10=MORDIDA DE AMOR
TTITLE11=OS CORACOES NAO SAO IGUAIS
TTITLE12=ELA SO QUER VERDURA
TTITLE13=TA LIBERADO
TTITLE14=SE NAO TIVESSE IDO
TTITLE15=HOMEM GALINHA
TTITLE16=TCHACA TCHACA NA BUCHACA
TTITLE17=O GRITO DA GALERA
EXTD=YEAR: 2005
EXTT0=
EXTT1=
EXTT2=
EXTT3=
EXTT4=
EXTT5=
EXTT6=
EXTT7=
EXTT8=
EXTT9=
EXTT10=
EXTT11=
EXTT12=
EXTT13=
EXTT14=
EXTT15=
EXTT16=
EXTT17=
PLAYORDER=
